<svg xmlns="http://www.w3.org/2000/svg" width="340" height="440" viewBox="0 0 340 440" role="img" aria-label="Creative Studio resume preview">
  <defs>
    <filter id="cs-shadow" x="-5%" y="-5%" width="110%" height="110%">
      <feDropShadow dx="0" dy="2" stdDeviation="2" flood-opacity=".14"/>
    </filter>
    <linearGradient id="cs-gradient" x1="0%" y1="0%" x2="100%" y2="100%">
      <stop offset="0%" style="stop-color:#fef3c7;stop-opacity:1" />
      <stop offset="50%" style="stop-color:#fdf2f8;stop-opacity:1" />
      <stop offset="100%" style="stop-color:#ede9fe;stop-opacity:1" />
    </linearGradient>
    <linearGradient id="cs-avatar-grad" x1="0%" y1="0%" x2="100%" y2="100%">
      <stop offset="0%" stop-color="#a78bfa"/>
      <stop offset="50%" stop-color="#e879f9"/>
      <stop offset="100%" stop-color="#818cf8"/>
    </linearGradient>
    <!-- Organic mask scaled to match creative_studio.html clip-path proportions -->
    <clipPath id="cs-photo-mask" clipPathUnits="userSpaceOnUse">
      <polygon points="68.4,59.2 111.5,63.7 113.8,108.5 92.5,118.7 65.6,109.8 63.4,82.9"/>
    </clipPath>
  </defs>
  <rect width="340" height="440" fill="url(#cs-gradient)"/>
  <ellipse cx="-20" cy="120" rx="90" ry="120" fill="#fbbf24" opacity=".15"/>
  <ellipse cx="360" cy="360" rx="100" ry="140" fill="#c4b5fd" opacity=".2"/>
  <rect x="28" y="16" width="284" height="408" rx="6" fill="#ffffff" stroke="#e9d5ff" filter="url(#cs-shadow)"/>
  <!-- Sidebar -->
  <rect x="40" y="36" width="96" height="368" rx="8" fill="#faf5ff" stroke="#e9d5ff"/>
  <!-- Sidebar: avatar with same organic mask as creative_studio.html -->
  <g clip-path="url(#cs-photo-mask)">
    <rect x="58" y="54" width="62" height="72" fill="url(#cs-avatar-grad)"/>
    <ellipse cx="88" cy="74" rx="13" ry="15" fill="#ffffff" opacity="0.18"/>
    <text x="88" y="99" text-anchor="middle" fill="#ffffff" font-family="ui-sans-serif,system-ui,sans-serif" font-size="16" font-weight="800">JL</text>
  </g>
  <text x="88" y="152" text-anchor="middle" fill="#5b21b6" font-family="ui-sans-serif,system-ui,sans-serif" font-size="10" font-weight="700">CONTACT</text>
  <rect x="54" y="162" width="68" height="4" rx="2" fill="#e9d5ff"/>
  <rect x="54" y="174" width="68" height="4" rx="2" fill="#e9d5ff"/>
  <rect x="54" y="186" width="54" height="4" rx="2" fill="#e9d5ff"/>
  <text x="88" y="216" text-anchor="middle" fill="#5b21b6" font-family="ui-sans-serif,system-ui,sans-serif" font-size="10" font-weight="700">SKILLS</text>
  <rect x="52" y="226" width="72" height="6" rx="3" fill="#ede9fe"/>
  <rect x="54" y="228" width="48" height="2" rx="1" fill="#a78bfa"/>
  <rect x="52" y="238" width="72" height="6" rx="3" fill="#ede9fe"/>
  <rect x="54" y="240" width="60" height="2" rx="1" fill="#f472b6"/>
  <!-- Main -->
  <text x="154" y="52" fill="#312e81" font-family="ui-sans-serif,system-ui,sans-serif" font-size="15" font-weight="800">Jordan Lee</text>
  <text x="154" y="70" fill="#a21caf" font-family="ui-sans-serif,system-ui,sans-serif" font-size="11" font-weight="600">Product Designer</text>
  <rect x="152" y="84" width="152" height="1" fill="#e9d5ff"/>
  <text x="154" y="104" fill="#3730a3" font-family="ui-sans-serif,system-ui,sans-serif" font-size="8" font-weight="700">EXPERIENCE</text>
  <rect x="154" y="110" width="140" height="5" rx="1" fill="#4c1d95" opacity=".2"/>
  <rect x="154" y="120" width="146" height="3" rx="1" fill="#e9d5ff"/>
  <rect x="154" y="128" width="138" height="3" rx="1" fill="#e9d5ff"/>
  <text x="154" y="156" fill="#3730a3" font-family="ui-sans-serif,system-ui,sans-serif" font-size="8" font-weight="700">REFERENCES</text>
  <rect x="154" y="164" width="148" height="28" rx="4" fill="#fff7ed" stroke="#fdba74"/>
  <rect x="162" y="174" width="80" height="3" rx="1" fill="#fca5a5" opacity=".5"/>
  <rect x="162" y="182" width="120" height="2" rx="1" fill="#fed7aa"/>
</svg>
