<svg xmlns="http://www.w3.org/2000/svg" width="340" height="440" viewBox="0 0 340 440" role="img" aria-label="Campus ATS resume preview">
  <defs>
    <filter id="nga-shadow" x="-5%" y="-5%" width="110%" height="110%">
      <feDropShadow dx="0" dy="1" stdDeviation="1.5" flood-opacity=".12"/>
    </filter>
  </defs>
  <rect width="340" height="440" fill="#f8fafc"/>
  <g filter="url(#nga-shadow)">
    <rect x="28" y="16" width="284" height="408" rx="4" fill="#ffffff" stroke="#e2e8f0"/>
  </g>
  <line x1="28" y1="52" x2="312" y2="52" stroke="#000" stroke-width="2"/>
  <text x="170" y="42" text-anchor="middle" font-family="ui-sans-serif,system-ui,sans-serif" font-size="11" font-weight="800" fill="#000">ALEX CHEN</text>
  <text x="170" y="90" text-anchor="middle" fill="#334155" font-family="ui-sans-serif,system-ui,sans-serif" font-size="7">EDUCATION</text>
  <rect x="44" y="98" width="252" height="3" fill="#cbd5e1" rx="1"/>
  <rect x="44" y="106" width="200" height="3" fill="#e2e8f0" rx="1"/>
  <text x="170" y="132" text-anchor="middle" fill="#334155" font-family="ui-sans-serif,system-ui,sans-serif" font-size="7">PROJECTS</text>
  <rect x="44" y="138" width="252" height="3" fill="#cbd5e1" rx="1"/>
  <rect x="44" y="146" width="236" height="3" fill="#e2e8f0" rx="1"/>
  <text x="170" y="174" text-anchor="middle" fill="#334155" font-family="ui-sans-serif,system-ui,sans-serif" font-size="7">EXPERIENCE</text>
  <rect x="44" y="180" width="252" height="1" fill="#94a3b8"/>
  <rect x="44" y="188" width="220" height="3" fill="#f1f5f9" rx="1"/>
  <text x="170" y="214" text-anchor="middle" fill="#334155" font-family="ui-sans-serif,system-ui,sans-serif" font-size="7">SKILLS</text>
  <rect x="44" y="220" width="252" height="3" fill="#f1f5f9" rx="1"/>
</svg>
